<svg width="107" height="16" viewBox="0 0 107 16" fill="none" xmlns="http://www.w3.org/2000/svg">
<path d="M49.8486 13H47.7705L47.7842 11.9268H49.8486C50.5596 11.9268 51.152 11.7786 51.626 11.4824C52.0999 11.1816 52.4554 10.7624 52.6924 10.2246C52.9339 9.68229 53.0547 9.04883 53.0547 8.32422V7.71582C53.0547 7.14616 52.9863 6.6403 52.8496 6.19824C52.7129 5.75163 52.5124 5.37565 52.248 5.07031C51.9837 4.76042 51.6602 4.52572 51.2773 4.36621C50.8991 4.20671 50.4639 4.12695 49.9717 4.12695H47.7295V3.04688H49.9717C50.6234 3.04688 51.2181 3.15625 51.7559 3.375C52.2936 3.58919 52.7562 3.90137 53.1436 4.31152C53.5355 4.71712 53.8363 5.20931 54.0459 5.78809C54.2555 6.3623 54.3604 7.00944 54.3604 7.72949V8.32422C54.3604 9.04427 54.2555 9.69368 54.0459 10.2725C53.8363 10.8467 53.5332 11.3366 53.1367 11.7422C52.7448 12.1478 52.2708 12.46 51.7148 12.6787C51.1634 12.8929 50.5413 13 49.8486 13ZM48.4746 3.04688V13H47.1553V3.04688H48.4746ZM58.8007 13.1367C58.2857 13.1367 57.8186 13.0501 57.3993 12.877C56.9846 12.6992 56.6269 12.4508 56.3261 12.1318C56.0299 11.8128 55.802 11.4346 55.6425 10.9971C55.483 10.5596 55.4032 10.0811 55.4032 9.56152V9.27441C55.4032 8.67285 55.4921 8.13737 55.6698 7.66797C55.8476 7.19401 56.0891 6.79297 56.3945 6.46484C56.6998 6.13672 57.0461 5.88835 57.4335 5.71973C57.8209 5.55111 58.2219 5.4668 58.6366 5.4668C59.1653 5.4668 59.621 5.55794 60.0038 5.74023C60.3912 5.92253 60.7079 6.17773 60.954 6.50586C61.2001 6.82943 61.3824 7.21224 61.5009 7.6543C61.6194 8.0918 61.6786 8.57031 61.6786 9.08984V9.65723H56.1552V8.625H60.414V8.5293C60.3958 8.20117 60.3274 7.88216 60.2089 7.57227C60.095 7.26237 59.9127 7.00716 59.662 6.80664C59.4114 6.60612 59.0696 6.50586 58.6366 6.50586C58.3495 6.50586 58.0852 6.56738 57.8437 6.69043C57.6021 6.80892 57.3948 6.98665 57.2216 7.22363C57.0484 7.46061 56.914 7.75 56.8183 8.0918C56.7226 8.43359 56.6747 8.8278 56.6747 9.27441V9.56152C56.6747 9.91243 56.7226 10.2428 56.8183 10.5527C56.9185 10.8581 57.0621 11.127 57.2489 11.3594C57.4404 11.5918 57.6705 11.7741 57.9394 11.9062C58.2128 12.0384 58.5227 12.1045 58.8691 12.1045C59.3157 12.1045 59.6939 12.0133 60.0038 11.8311C60.3137 11.6488 60.5849 11.4049 60.8173 11.0996L61.5829 11.708C61.4234 11.9495 61.2206 12.1797 60.9745 12.3984C60.7284 12.6172 60.4254 12.7949 60.0654 12.9316C59.7099 13.0684 59.2883 13.1367 58.8007 13.1367ZM65.8045 13.1367C65.2896 13.1367 64.8224 13.0501 64.4032 12.877C63.9885 12.6992 63.6307 12.4508 63.3299 12.1318C63.0337 11.8128 62.8058 11.4346 62.6463 10.9971C62.4868 10.5596 62.4071 10.0811 62.4071 9.56152V9.27441C62.4071 8.67285 62.4959 8.13737 62.6737 7.66797C62.8514 7.19401 63.0929 6.79297 63.3983 6.46484C63.7036 6.13672 64.05 5.88835 64.4373 5.71973C64.8247 5.55111 65.2258 5.4668 65.6405 5.4668C66.1691 5.4668 66.6248 5.55794 67.0077 5.74023C67.395 5.92253 67.7118 6.17773 67.9579 6.50586C68.2039 6.82943 68.3862 7.21224 68.5047 7.6543C68.6232 8.0918 68.6825 8.57031 68.6825 9.08984V9.65723H63.159V8.625H67.4178V8.5293C67.3996 8.20117 67.3312 7.88216 67.2127 7.57227C67.0988 7.26237 66.9165 7.00716 66.6659 6.80664C66.4152 6.60612 66.0734 6.50586 65.6405 6.50586C65.3534 6.50586 65.089 6.56738 64.8475 6.69043C64.606 6.80892 64.3986 6.98665 64.2254 7.22363C64.0523 7.46061 63.9178 7.75 63.8221 8.0918C63.7264 8.43359 63.6786 8.8278 63.6786 9.27441V9.56152C63.6786 9.91243 63.7264 10.2428 63.8221 10.5527C63.9224 10.8581 64.0659 11.127 64.2528 11.3594C64.4442 11.5918 64.6743 11.7741 64.9432 11.9062C65.2166 12.0384 65.5265 12.1045 65.8729 12.1045C66.3195 12.1045 66.6978 12.0133 67.0077 11.8311C67.3176 11.6488 67.5887 11.4049 67.8211 11.0996L68.5868 11.708C68.4273 11.9495 68.2245 12.1797 67.9784 12.3984C67.7323 12.6172 67.4292 12.7949 67.0692 12.9316C66.7137 13.0684 66.2922 13.1367 65.8045 13.1367ZM71.0037 7.02539V15.8438H69.7322V5.60352H70.8943L71.0037 7.02539ZM75.9871 9.24023V9.38379C75.9871 9.92155 75.9233 10.4206 75.7957 10.8809C75.6681 11.3366 75.4812 11.7331 75.2351 12.0703C74.9936 12.4076 74.6951 12.6696 74.3396 12.8564C73.9841 13.0433 73.5763 13.1367 73.116 13.1367C72.6466 13.1367 72.2319 13.0592 71.8718 12.9043C71.5118 12.7493 71.2065 12.5238 70.9558 12.2275C70.7052 11.9313 70.5046 11.5758 70.3543 11.1611C70.2084 10.7464 70.1082 10.2793 70.0535 9.75977V8.99414C70.1082 8.44727 70.2107 7.95736 70.3611 7.52441C70.5115 7.09147 70.7097 6.72233 70.9558 6.41699C71.2065 6.1071 71.5095 5.8724 71.865 5.71289C72.2205 5.54883 72.6306 5.4668 73.0955 5.4668C73.5603 5.4668 73.9727 5.55794 74.3328 5.74023C74.6928 5.91797 74.9959 6.17318 75.242 6.50586C75.488 6.83854 75.6726 7.2373 75.7957 7.70215C75.9233 8.16243 75.9871 8.67513 75.9871 9.24023ZM74.7156 9.38379V9.24023C74.7156 8.87109 74.6768 8.52474 74.5994 8.20117C74.5219 7.87305 74.4011 7.58594 74.2371 7.33984C74.0776 7.08919 73.8725 6.89323 73.6218 6.75195C73.3712 6.60612 73.0727 6.5332 72.7263 6.5332C72.4073 6.5332 72.1293 6.58789 71.8923 6.69727C71.6599 6.80664 71.4617 6.95475 71.2976 7.1416C71.1336 7.32389 70.9991 7.53353 70.8943 7.77051C70.794 8.00293 70.7188 8.24447 70.6687 8.49512V10.2656C70.7599 10.5846 70.8875 10.8854 71.0515 11.168C71.2156 11.446 71.4343 11.6715 71.7078 11.8447C71.9812 12.0133 72.3253 12.0977 72.74 12.0977C73.0818 12.0977 73.3757 12.027 73.6218 11.8857C73.8725 11.7399 74.0776 11.5417 74.2371 11.291C74.4011 11.0404 74.5219 10.7533 74.5994 10.4297C74.6768 10.1016 74.7156 9.75293 74.7156 9.38379ZM77.7887 3.04688H79.0671L82.3278 11.1611L85.5817 3.04688H86.8669L82.82 13H81.822L77.7887 3.04688ZM77.3718 3.04688H78.4997L78.6843 9.11719V13H77.3718V3.04688ZM86.1491 3.04688H87.277V13H85.9645V9.11719L86.1491 3.04688ZM90.357 5.60352V13H89.0855V5.60352H90.357ZM88.9898 3.6416C88.9898 3.43652 89.0514 3.26335 89.1744 3.12207C89.302 2.98079 89.4889 2.91016 89.735 2.91016C89.9765 2.91016 90.1611 2.98079 90.2887 3.12207C90.4208 3.26335 90.4869 3.43652 90.4869 3.6416C90.4869 3.83757 90.4208 4.00618 90.2887 4.14746C90.1611 4.28418 89.9765 4.35254 89.735 4.35254C89.4889 4.35254 89.302 4.28418 89.1744 4.14746C89.0514 4.00618 88.9898 3.83757 88.9898 3.6416ZM93.232 7.18262V13H91.9673V5.60352H93.1636L93.232 7.18262ZM92.9312 9.02148L92.4048 9.00098C92.4094 8.49512 92.4846 8.02799 92.6304 7.59961C92.7762 7.16667 92.9813 6.79069 93.2456 6.47168C93.5099 6.15267 93.8244 5.90658 94.189 5.7334C94.5581 5.55566 94.966 5.4668 95.4126 5.4668C95.7772 5.4668 96.1053 5.51693 96.397 5.61719C96.6887 5.71289 96.937 5.86784 97.1421 6.08203C97.3517 6.29622 97.5112 6.57422 97.6206 6.91602C97.73 7.25326 97.7847 7.66569 97.7847 8.15332V13H96.5132V8.13965C96.5132 7.75228 96.4562 7.44238 96.3423 7.20996C96.2284 6.97298 96.062 6.80208 95.8433 6.69727C95.6245 6.58789 95.3557 6.5332 95.0366 6.5332C94.7222 6.5332 94.4351 6.59928 94.1753 6.73145C93.9201 6.86361 93.6991 7.0459 93.5122 7.27832C93.3299 7.51074 93.1864 7.77734 93.0816 8.07812C92.9813 8.37435 92.9312 8.6888 92.9312 9.02148ZM103.948 11.5645V2.5H105.219V13H104.057L103.948 11.5645ZM98.9711 9.38379V9.24023C98.9711 8.67513 99.0395 8.16243 99.1762 7.70215C99.3175 7.2373 99.5157 6.83854 99.7709 6.50586C100.031 6.17318 100.338 5.91797 100.694 5.74023C101.054 5.55794 101.455 5.4668 101.897 5.4668C102.362 5.4668 102.767 5.54883 103.114 5.71289C103.465 5.8724 103.761 6.1071 104.002 6.41699C104.248 6.72233 104.442 7.09147 104.583 7.52441C104.725 7.95736 104.823 8.44727 104.877 8.99414V9.62305C104.827 10.1654 104.729 10.653 104.583 11.0859C104.442 11.5189 104.248 11.888 104.002 12.1934C103.761 12.4987 103.465 12.7334 103.114 12.8975C102.763 13.057 102.353 13.1367 101.883 13.1367C101.45 13.1367 101.054 13.0433 100.694 12.8564C100.338 12.6696 100.031 12.4076 99.7709 12.0703C99.5157 11.7331 99.3175 11.3366 99.1762 10.8809C99.0395 10.4206 98.9711 9.92155 98.9711 9.38379ZM100.243 9.24023V9.38379C100.243 9.75293 100.279 10.0993 100.352 10.4229C100.429 10.7464 100.548 11.0312 100.707 11.2773C100.867 11.5234 101.07 11.7171 101.316 11.8584C101.562 11.9951 101.856 12.0635 102.198 12.0635C102.617 12.0635 102.961 11.9746 103.23 11.7969C103.503 11.6191 103.722 11.3844 103.886 11.0928C104.05 10.8011 104.178 10.4844 104.269 10.1426V8.49512C104.214 8.24447 104.135 8.00293 104.03 7.77051C103.929 7.53353 103.797 7.32389 103.633 7.1416C103.474 6.95475 103.275 6.80664 103.039 6.69727C102.806 6.58789 102.53 6.5332 102.211 6.5332C101.865 6.5332 101.567 6.60612 101.316 6.75195C101.07 6.89323 100.867 7.08919 100.707 7.33984C100.548 7.58594 100.429 7.87305 100.352 8.20117C100.279 8.52474 100.243 8.87109 100.243 9.24023Z" fill="white"/>
<path d="M10.3554 6.92205H5.39697V8.39346H8.91424C8.73955 10.4561 7.02291 11.3363 5.40369 11.3363C4.36127 11.3363 3.36154 10.9222 2.62443 10.1851C1.88733 9.44796 1.47322 8.44823 1.47322 7.4058C1.47322 6.36338 1.88733 5.36365 2.62443 4.62654C3.36154 3.88944 4.36127 3.47534 5.40369 3.47534C6.39175 3.4738 7.3419 3.85554 8.05424 4.54026L9.08557 3.47198C8.0892 2.5092 6.75212 1.98016 5.36674 2.00057C4.65691 2.00564 3.95504 2.15048 3.30119 2.4268C2.64734 2.70313 2.05431 3.10553 1.55598 3.61104C1.05764 4.11655 0.663754 4.71527 0.396803 5.373C0.129852 6.03074 -0.00493526 6.73461 0.00013807 7.44444C0.0052114 8.15426 0.150046 8.85614 0.426371 9.50999C0.702697 10.1638 1.1051 10.7569 1.61061 11.2552C2.11612 11.7535 2.71484 12.1474 3.37257 12.4144C4.03031 12.6813 4.73418 12.8161 5.444 12.811C8.33643 12.811 10.4562 10.829 10.4562 7.89627C10.4625 7.56916 10.4321 7.24237 10.3655 6.92205H10.3554ZM14.4169 5.85713C13.731 5.85979 13.0613 6.06543 12.4921 6.44814C11.923 6.83084 11.4798 7.37347 11.2186 8.00763C10.9574 8.6418 10.8897 9.33911 11.0242 10.0117C11.1586 10.6842 11.4892 11.3019 11.9742 11.7869C12.4591 12.2719 13.0768 12.6024 13.7494 12.7369C14.422 12.8713 15.1193 12.8037 15.7534 12.5425C16.3876 12.2812 16.9302 11.8381 17.3129 11.2689C17.6956 10.6997 17.9013 10.03 17.9039 9.34416C17.9112 8.88424 17.8259 8.42754 17.6533 8.0012C17.4806 7.57485 17.224 7.18755 16.8988 6.86229C16.5735 6.53703 16.1862 6.28045 15.7599 6.10778C15.3335 5.93511 14.8768 5.84987 14.4169 5.85713ZM14.4371 7.22104C14.8598 7.19613 15.2803 7.29883 15.644 7.51581C16.0077 7.73279 16.2978 8.05404 16.4766 8.4379C16.6555 8.82176 16.7149 9.25051 16.6472 9.66855C16.5794 10.0866 16.3876 10.4746 16.0966 10.7823C15.8056 11.09 15.4289 11.3032 15.0153 11.3941C14.6017 11.4851 14.1703 11.4497 13.777 11.2925C13.3838 11.1353 13.0469 10.8636 12.8099 10.5126C12.573 10.1616 12.447 9.7475 12.4483 9.32401C12.4342 9.05373 12.4751 8.78341 12.5686 8.52943C12.6621 8.27545 12.8062 8.0431 12.9921 7.84646C13.1781 7.64982 13.4021 7.493 13.6504 7.38549C13.8988 7.27798 14.1664 7.22204 14.4371 7.22104ZM22.0158 5.85713C21.3298 5.85913 20.6597 6.06421 20.0901 6.44651C19.5205 6.82881 19.0769 7.37121 18.8151 8.00532C18.5534 8.63943 18.4852 9.33684 18.6193 10.0096C18.7534 10.6824 19.0837 11.3004 19.5685 11.7857C20.0534 12.271 20.6711 12.6019 21.3437 12.7367C22.0164 12.8714 22.7138 12.8039 23.3482 12.5428C23.9826 12.2816 24.5254 11.8385 24.9082 11.2693C25.2911 10.7 25.4968 10.0302 25.4995 9.34416C25.5067 8.88452 25.4216 8.42811 25.2491 8.00199C25.0767 7.57587 24.8204 7.18872 24.4955 6.86351C24.1706 6.5383 23.7837 6.28165 23.3577 6.10877C22.9318 5.9359 22.4754 5.85033 22.0158 5.85713ZM22.036 7.22104C22.4587 7.19613 22.8792 7.29883 23.2429 7.51581C23.6066 7.73279 23.8967 8.05404 24.0755 8.4379C24.2544 8.82176 24.3138 9.25051 24.2461 9.66855C24.1783 10.0866 23.9865 10.4746 23.6955 10.7823C23.4045 11.09 23.0278 11.3032 22.6142 11.3941C22.2006 11.4851 21.7692 11.4497 21.376 11.2925C20.9827 11.1353 20.6458 10.8636 20.4088 10.5126C20.1719 10.1616 20.0459 9.7475 20.0472 9.32401C20.0331 9.05373 20.074 8.78341 20.1675 8.52943C20.261 8.27545 20.4051 8.0431 20.591 7.84646C20.777 7.64982 21.001 7.493 21.2493 7.38549C21.4977 7.27798 21.7653 7.22204 22.036 7.22104ZM29.4635 5.86049C27.5957 5.86049 26.1277 7.49651 26.1277 9.33073C26.1139 10.2271 26.4519 11.0931 27.0693 11.7431C27.6866 12.3931 28.5341 12.7753 29.4299 12.8077C29.7914 12.8274 30.1525 12.7612 30.4835 12.6147C30.8146 12.4681 31.1063 12.2453 31.3347 11.9645V12.6364C31.3347 13.8356 30.6057 14.5512 29.5072 14.5512C29.1241 14.548 28.7507 14.4306 28.4347 14.214C28.1187 13.9973 27.8745 13.6913 27.7335 13.3351L26.3897 13.8928C26.6496 14.5046 27.0852 15.0256 27.6413 15.3898C28.1975 15.754 28.8492 15.945 29.5139 15.9386C31.3717 15.9386 32.786 14.7696 32.786 12.3172V6.06877H31.3381V6.65666C31.1006 6.39776 30.8104 6.19273 30.4871 6.0554C30.1638 5.91806 29.8147 5.8516 29.4635 5.86049ZM29.5979 7.22104C30.515 7.22104 31.4523 8.00377 31.4523 9.33744C31.4523 10.6711 30.515 11.4438 29.5778 11.4438C29.3127 11.437 29.0517 11.377 28.8104 11.2673C28.569 11.1575 28.3522 11.0003 28.1729 10.805C27.9936 10.6097 27.8555 10.3803 27.7667 10.1305C27.6779 9.88068 27.6403 9.61554 27.6562 9.35088C27.6562 8.00713 28.617 7.22104 29.5979 7.22104ZM39.2729 5.85041C37.5126 5.85041 36.0311 7.25127 36.0311 9.32065C36.0137 9.77671 36.0894 10.2315 36.2536 10.6574C36.4178 11.0832 36.6671 11.4711 36.9861 11.7974C37.3052 12.1237 37.6875 12.3816 38.1095 12.5553C38.5315 12.729 38.9845 12.8149 39.4409 12.8077C40.0132 12.8088 40.5772 12.6705 41.0841 12.4048C41.5909 12.1391 42.0255 11.7539 42.3501 11.2825L41.1474 10.483C40.9732 10.7786 40.7239 11.0229 40.4248 11.1911C40.1256 11.3592 39.7874 11.4453 39.4442 11.4404C39.0878 11.4551 38.7352 11.3629 38.4316 11.1755C38.1281 10.9881 37.8876 10.7142 37.741 10.3889L42.4005 8.45729L42.1586 7.88955C41.9365 7.29978 41.5423 6.79035 41.0272 6.42735C40.512 6.06434 39.8997 5.86451 39.2696 5.85377L39.2729 5.85041ZM39.3334 7.19416C39.5962 7.18283 39.8569 7.24665 40.0847 7.37814C40.3126 7.50963 40.4983 7.70335 40.62 7.93659L37.5092 9.23666C37.4938 8.98254 37.5289 8.72787 37.6124 8.48736C37.6959 8.24685 37.8262 8.02526 37.9958 7.83537C38.1654 7.64548 38.3709 7.49105 38.6004 7.381C38.83 7.27094 39.0791 7.20745 39.3334 7.19416ZM33.8106 12.6028H35.3424V2.36002H33.8106V12.6028Z" fill="white"/>
</svg>
