<svg width="16" height="16" viewBox="0 0 16 16" fill="none" xmlns="http://www.w3.org/2000/svg">
<path d="M7.9987 1.33203C7.12322 1.33203 6.25631 1.50447 5.44747 1.8395C4.63864 2.17453 3.90371 2.6656 3.28465 3.28465C2.03441 4.5349 1.33203 6.23059 1.33203 7.9987C1.33203 10.9454 3.24536 13.4454 5.89203 14.332C6.22536 14.3854 6.33203 14.1787 6.33203 13.9987V12.872C4.48536 13.272 4.09203 11.9787 4.09203 11.9787C3.78536 11.2054 3.35203 10.9987 3.35203 10.9987C2.74536 10.5854 3.3987 10.5987 3.3987 10.5987C4.06536 10.6454 4.4187 11.2854 4.4187 11.2854C4.9987 12.2987 5.9787 11.9987 6.3587 11.8387C6.4187 11.4054 6.59203 11.112 6.7787 10.9454C5.2987 10.7787 3.74536 10.2054 3.74536 7.66536C3.74536 6.92536 3.9987 6.33203 4.43203 5.8587C4.36536 5.69203 4.13203 4.9987 4.4987 4.0987C4.4987 4.0987 5.0587 3.9187 6.33203 4.7787C6.8587 4.63203 7.43203 4.5587 7.9987 4.5587C8.56536 4.5587 9.1387 4.63203 9.66536 4.7787C10.9387 3.9187 11.4987 4.0987 11.4987 4.0987C11.8654 4.9987 11.632 5.69203 11.5654 5.8587C11.9987 6.33203 12.252 6.92536 12.252 7.66536C12.252 10.212 10.692 10.772 9.20536 10.9387C9.44536 11.1454 9.66536 11.552 9.66536 12.172V13.9987C9.66536 14.1787 9.77203 14.392 10.112 14.332C12.7587 13.4387 14.6654 10.9454 14.6654 7.9987C14.6654 7.12322 14.4929 6.25631 14.1579 5.44747C13.8229 4.63864 13.3318 3.90371 12.7127 3.28465C12.0937 2.6656 11.3588 2.17453 10.5499 1.8395C9.74108 1.50447 8.87418 1.33203 7.9987 1.33203Z" fill="#202124"/>
</svg>
