<svg width="16" height="16" viewBox="0 0 16 16" fill="none" xmlns="http://www.w3.org/2000/svg">
<path d="M6.71429 10.1429L10.4214 8L6.71429 5.85714V10.1429ZM14.9714 4.55C15.0643 4.88571 15.1286 5.33571 15.1714 5.90714C15.2214 6.47857 15.2429 6.97143 15.2429 7.4L15.2857 8C15.2857 9.56429 15.1714 10.7143 14.9714 11.45C14.7929 12.0929 14.3786 12.5071 13.7357 12.6857C13.4 12.7786 12.7857 12.8429 11.8429 12.8857C10.9143 12.9357 10.0643 12.9571 9.27857 12.9571L8.14286 13C5.15 13 3.28571 12.8857 2.55 12.6857C1.90714 12.5071 1.49286 12.0929 1.31429 11.45C1.22143 11.1143 1.15714 10.6643 1.11429 10.0929C1.06429 9.52143 1.04286 9.02857 1.04286 8.6L1 8C1 6.43571 1.11429 5.28571 1.31429 4.55C1.49286 3.90714 1.90714 3.49286 2.55 3.31429C2.88571 3.22143 3.5 3.15714 4.44286 3.11429C5.37143 3.06429 6.22143 3.04286 7.00714 3.04286L8.14286 3C11.1357 3 13 3.11429 13.7357 3.31429C14.3786 3.49286 14.7929 3.90714 14.9714 4.55Z" fill="#202124"/>
</svg>
