<svg width="16" height="16" viewBox="0 0 16 16" fill="none" xmlns="http://www.w3.org/2000/svg">
<path d="M5.25371 1H11.4143C13.7611 1 15.668 2.90684 15.668 5.25371V11.4143C15.668 12.5424 15.2198 13.6244 14.4221 14.4221C13.6244 15.2198 12.5424 15.668 11.4143 15.668H5.25371C2.90684 15.668 1 13.7611 1 11.4143V5.25371C1 4.12556 1.44816 3.04361 2.24588 2.24588C3.04361 1.44816 4.12556 1 5.25371 1ZM5.10703 2.4668C4.4068 2.4668 3.73524 2.74496 3.2401 3.2401C2.74496 3.73524 2.4668 4.4068 2.4668 5.10703V11.5609C2.4668 13.0204 3.64757 14.2012 5.10703 14.2012H11.5609C12.2612 14.2012 12.9327 13.923 13.4279 13.4279C13.923 12.9327 14.2012 12.2612 14.2012 11.5609V5.10703C14.2012 3.64757 13.0204 2.4668 11.5609 2.4668H5.10703ZM12.1843 3.56689C12.4275 3.56689 12.6606 3.66348 12.8326 3.8354C13.0045 4.00733 13.1011 4.24051 13.1011 4.48364C13.1011 4.72678 13.0045 4.95996 12.8326 5.13188C12.6606 5.3038 12.4275 5.40039 12.1843 5.40039C11.9412 5.40039 11.708 5.3038 11.5361 5.13188C11.3642 4.95996 11.2676 4.72678 11.2676 4.48364C11.2676 4.24051 11.3642 4.00733 11.5361 3.8354C11.708 3.66348 11.9412 3.56689 12.1843 3.56689ZM8.33398 4.66699C9.30653 4.66699 10.2392 5.05333 10.9269 5.74103C11.6146 6.42872 12.001 7.36144 12.001 8.33398C12.001 9.30653 11.6146 10.2392 10.9269 10.9269C10.2392 11.6146 9.30653 12.001 8.33398 12.001C7.36144 12.001 6.42872 11.6146 5.74103 10.9269C5.05333 10.2392 4.66699 9.30653 4.66699 8.33398C4.66699 7.36144 5.05333 6.42872 5.74103 5.74103C6.42872 5.05333 7.36144 4.66699 8.33398 4.66699ZM8.33398 6.13379C7.75046 6.13379 7.19083 6.36559 6.77821 6.77821C6.36559 7.19083 6.13379 7.75046 6.13379 8.33398C6.13379 8.91751 6.36559 9.47714 6.77821 9.88976C7.19083 10.3024 7.75046 10.5342 8.33398 10.5342C8.91751 10.5342 9.47714 10.3024 9.88976 9.88976C10.3024 9.47714 10.5342 8.91751 10.5342 8.33398C10.5342 7.75046 10.3024 7.19083 9.88976 6.77821C9.47714 6.36559 8.91751 6.13379 8.33398 6.13379Z" fill="#202124"/>
</svg>
